<svg width="137" height="137" viewBox="0 0 137 137" fill="none" xmlns="http://www.w3.org/2000/svg">
<path d="M81.5015 69.5015H71.9015C70.1415 69.5015 68.7015 70.9415 68.7015 72.7015V82.3015C68.7015 84.0615 70.1415 85.5015 71.9015 85.5015H81.5015C83.2615 85.5015 84.7015 84.0615 84.7015 82.3015V72.7015C84.7015 70.9415 83.2615 69.5015 81.5015 69.5015ZM81.5015 37.5015V40.7015H55.9015V37.5015C55.9015 35.7415 54.4615 34.3015 52.7015 34.3015C50.9415 34.3015 49.5015 35.7415 49.5015 37.5015V40.7015H46.3015C42.7495 40.7015 39.9335 43.5815 39.9335 47.1015L39.9015 91.9015C39.9015 93.5989 40.5758 95.2268 41.776 96.427C42.9762 97.6272 44.6041 98.3015 46.3015 98.3015H91.1015C94.6215 98.3015 97.5015 95.4215 97.5015 91.9015V47.1015C97.5015 43.5815 94.6215 40.7015 91.1015 40.7015H87.9015V37.5015C87.9015 35.7415 86.4615 34.3015 84.7015 34.3015C82.9415 34.3015 81.5015 35.7415 81.5015 37.5015ZM87.9015 91.9015H49.5015C47.7415 91.9015 46.3015 90.4615 46.3015 88.7015V56.7015H91.1015V88.7015C91.1015 90.4615 89.6615 91.9015 87.9015 91.9015Z" fill="white"/>
<circle cx="68.7016" cy="68.7015" r="64.8" transform="rotate(96 68.7016 68.7015)" stroke="white" stroke-width="6.4"/>
</svg>
