<svg width="137" height="137" viewBox="0 0 137 137" fill="none" xmlns="http://www.w3.org/2000/svg">
<path d="M102.507 34.241C102.479 34.1035 102.412 33.977 102.314 33.8762C102.217 33.7754 102.092 33.7046 101.956 33.672C92.8597 31.446 71.842 39.3785 60.4549 50.7713C58.4239 52.7877 56.5724 54.9774 54.9213 57.3156C51.4098 57.0047 47.8983 57.2643 44.9055 58.5701C36.4615 62.29 34.003 71.9961 33.3181 76.1714C33.2792 76.4 33.2939 76.6344 33.3609 76.8563C33.4279 77.0782 33.5454 77.2815 33.7042 77.4503C33.863 77.619 34.0588 77.7486 34.2761 77.8288C34.4934 77.909 34.7263 77.9376 34.9566 77.9124L48.5164 76.4155C48.5261 77.4387 48.5878 78.4608 48.7012 79.4778C48.7695 80.184 49.0827 80.844 49.5865 81.3432L54.8374 86.5864C55.3366 87.09 55.9957 87.4034 56.7011 87.4725C57.7115 87.5856 58.7269 87.6473 59.7436 87.6575L58.2557 101.212C58.2309 101.443 58.2598 101.676 58.34 101.893C58.4202 102.111 58.5497 102.306 58.7182 102.465C58.8867 102.624 59.0897 102.742 59.3112 102.809C59.5328 102.876 59.7669 102.891 59.9952 102.852C64.159 102.184 73.8734 99.7233 77.5682 91.2716C78.8727 88.2761 79.1399 84.7786 78.8386 81.281C81.1803 79.6283 83.3738 77.7746 85.3941 75.7408C96.8169 64.3652 104.697 43.7979 102.507 34.241ZM73.9977 62.1703C72.9546 61.1269 72.2441 59.7974 71.9561 58.3499C71.668 56.9024 71.8154 55.4019 72.3795 54.0382C72.9436 52.6745 73.899 51.5089 75.1251 50.6888C76.3511 49.8687 77.7926 49.431 79.2672 49.431C80.7418 49.431 82.1833 49.8687 83.4094 50.6888C84.6354 51.5089 85.5909 52.6745 86.155 54.0382C86.719 55.4019 86.8664 56.9024 86.5784 58.3499C86.2903 59.7974 85.5798 61.1269 84.5368 62.1703C83.8451 62.8635 83.0237 63.4135 82.1195 63.7888C81.2153 64.164 80.2461 64.3572 79.2672 64.3572C78.2884 64.3572 77.3191 64.164 76.4149 63.7888C75.5107 63.4135 74.6893 62.8635 73.9977 62.1703Z" fill="white"/>
<circle cx="68.3594" cy="68.3594" r="64.5469" stroke="white" stroke-width="6.375"/>
</svg>
