<svg width="143" height="143" viewBox="0 0 143 143" fill="none" xmlns="http://www.w3.org/2000/svg">
<path d="M70.9605 43.3607C69.9784 43.3607 69.0084 43.5332 68.0869 43.8658L34.0771 56.345C32.9253 56.7761 32.1614 57.8848 32.1614 59.1291C32.1614 60.3733 32.9253 61.482 34.0771 61.9132L41.0973 64.4878C39.1089 67.6661 37.9813 71.4234 37.9813 75.3778V78.8395C37.9813 82.3381 36.6718 85.9475 35.2775 88.7932C34.4894 90.3947 33.5921 91.9715 32.5494 93.4252C32.1614 93.9549 32.0523 94.6448 32.2705 95.273C32.4888 95.9013 32.998 96.3694 33.6285 96.5296L41.3883 98.5006C41.8976 98.6361 42.4432 98.5376 42.8918 98.2542C43.3404 97.9709 43.6556 97.5028 43.7526 96.9731C44.7954 91.7005 44.274 86.97 43.498 83.5823C43.11 81.833 42.5887 80.0467 41.8612 78.4083V75.3778C41.8612 71.6575 43.0979 68.1466 45.244 65.3378C46.8081 63.4284 48.8329 61.8885 51.2093 60.94L70.2451 53.3391C71.2393 52.9449 72.3669 53.4377 72.7549 54.4478C73.1429 55.458 72.6579 56.6037 71.6637 56.9979L52.6279 64.5987C51.1245 65.2023 49.8029 66.1263 48.7238 67.2596L68.0748 74.3554C68.9963 74.688 69.9663 74.8604 70.9484 74.8604C71.9305 74.8604 72.9004 74.688 73.8219 74.3554L107.844 61.9132C108.996 61.4943 109.76 60.3733 109.76 59.1291C109.76 57.8848 108.996 56.7761 107.844 56.345L73.834 43.8658C72.9126 43.5332 71.9426 43.3607 70.9605 43.3607ZM47.681 89.6802C47.681 94.0288 58.1083 98.5499 70.9605 98.5499C83.8127 98.5499 94.2399 94.0288 94.2399 89.6802L92.3848 71.7684L75.1435 78.1003C73.7977 78.5931 72.3791 78.8395 70.9605 78.8395C69.5419 78.8395 68.1112 78.5931 66.7775 78.1003L49.5361 71.7684L47.681 89.6802Z" fill="white"/>
<circle cx="71.3609" cy="71.3609" r="64.8" transform="rotate(-170 71.3609 71.3609)" stroke="white" stroke-width="6.4"/>
</svg>
