<svg width="137" height="137" viewBox="0 0 137 137" fill="none" xmlns="http://www.w3.org/2000/svg">
<circle cx="68.7604" cy="68.7604" r="64.9688" stroke="white" stroke-width="6.41667"/>
<path d="M47.0373 49.3416C47.0373 48.0278 47.2967 46.7268 47.8005 45.5129C48.3044 44.2991 49.0429 43.1961 49.9739 42.2671C50.9049 41.338 52.0102 40.6011 53.2266 40.0983C54.443 39.5955 55.7467 39.3367 57.0634 39.3367C58.38 39.3367 59.6838 39.5955 60.9002 40.0983C62.1166 40.6011 63.2218 41.338 64.1528 42.2671C65.0839 43.1961 65.8224 44.2991 66.3262 45.5129C66.8301 46.7268 67.0894 48.0278 67.0894 49.3416C67.0894 51.9951 66.0331 54.5399 64.1528 56.4162C62.2726 58.2925 59.7224 59.3466 57.0634 59.3466C54.4043 59.3466 51.8541 58.2925 49.9739 56.4162C48.0936 54.5399 47.0373 51.9951 47.0373 49.3416ZM57.0634 32.6667C52.6316 32.6667 48.3813 34.4236 45.2476 37.5507C42.1138 40.6779 40.3533 44.9192 40.3533 49.3416C40.3533 53.7641 42.1138 58.0054 45.2476 61.1326C48.3813 64.2597 52.6316 66.0165 57.0634 66.0165C61.4952 66.0165 65.7454 64.2597 68.8792 61.1326C72.0129 58.0054 73.7734 53.7641 73.7734 49.3416C73.7734 44.9192 72.0129 40.6779 68.8792 37.5507C65.7454 34.4236 61.4952 32.6667 57.0634 32.6667ZM80.4575 32.6667H77.1154V39.3367H80.4575C81.7741 39.3367 83.0778 39.5955 84.2943 40.0983C85.5107 40.6011 86.6159 41.338 87.5469 42.2671C88.4779 43.1961 89.2165 44.2991 89.7203 45.5129C90.2242 46.7268 90.4835 48.0278 90.4835 49.3416C90.4835 50.6555 90.2242 51.9565 89.7203 53.1704C89.2165 54.3842 88.4779 55.4872 87.5469 56.4162C86.6159 57.3452 85.5107 58.0822 84.2943 58.585C83.0778 59.0878 81.7741 59.3466 80.4575 59.3466H77.1154V66.0165H80.4575C84.8892 66.0165 89.1395 64.2597 92.2733 61.1326C95.407 58.0054 97.1675 53.7641 97.1675 49.3416C97.1675 44.9192 95.407 40.6779 92.2733 37.5507C89.1395 34.4236 84.8892 32.6667 80.4575 32.6667ZM28.6562 89.3614C28.6562 84.9389 30.4168 80.6976 33.5505 77.5704C36.6843 74.4433 40.9345 72.6865 45.3663 72.6865H68.7604C73.1922 72.6865 77.4425 74.4433 80.5762 77.5704C83.71 80.6976 85.4705 84.9389 85.4705 89.3614V96.0313H78.7865V89.3614C78.7865 86.7079 77.7301 84.1631 75.8499 82.2868C73.9697 80.4105 71.4195 79.3564 68.7604 79.3564H45.3663C42.7072 79.3564 40.1571 80.4105 38.2768 82.2868C36.3966 84.1631 35.3403 86.7079 35.3403 89.3614V96.0313H28.6562V92.6964V89.3614ZM108.865 89.3614C108.865 87.1716 108.432 85.0033 107.593 82.9802C106.753 80.9571 105.522 79.1189 103.97 77.5704C102.419 76.022 100.577 74.7938 98.5492 73.9558C96.5218 73.1178 94.3489 72.6865 92.1545 72.6865H88.8125V79.3564H92.1545C94.8136 79.3564 97.3637 80.4105 99.244 82.2868C101.124 84.1631 102.181 86.7079 102.181 89.3614V96.0313H108.865V92.6964V89.3614Z" fill="white"/>
</svg>
