<svg width="77" height="77" viewBox="0 0 77 77" fill="none" xmlns="http://www.w3.org/2000/svg">
<path d="M18.9404 44.6619L30.3402 33.2621M18.9404 44.6619L13.4488 39.1703C13.0164 38.738 13.0164 38.0371 13.4488 37.6048L15.9959 35.0576C16.1744 34.8791 16.4087 34.7669 16.6598 34.7398L30.3402 33.2621M18.9404 44.6619L25.4984 51.22M32.0565 57.778L43.4562 46.3782M32.0565 57.778L37.79 63.5115C38.2223 63.9438 38.9232 63.9438 39.3555 63.5115L41.8944 60.9726C42.078 60.789 42.1912 60.5468 42.2143 60.2883L43.4562 46.3782M32.0565 57.778L25.4984 51.22M43.4562 46.3782L54.856 34.9784C59.7318 29.3243 64.1066 23.1093 63.8885 13.8076C63.8751 13.234 63.4055 12.7788 62.8317 12.7745C53.7643 12.7065 49.2163 15.5322 41.74 21.8624L30.3402 33.2621M14.0292 51.8306L12.9363 62.4618C12.8634 63.1702 13.4687 63.7621 14.1753 63.6734L24.5682 62.3695M25.4984 51.22L31.1789 45.5006" stroke="#00C3FF" stroke-width="4.73547"/>
<path d="M49.5738 22.9966L53.9622 27.3849" stroke="#00C3FF" stroke-width="5.48576" stroke-linecap="round"/>
<path d="M17.6823 63.1929L25.0998 62.2829" stroke="#00C3FF" stroke-width="4.73547" stroke-linecap="round"/>
<path d="M14.0603 51.1042L13.3472 58.2444" stroke="#00C3FF" stroke-width="4.73547" stroke-linecap="round"/>
<path d="M26.7992 50.1594L36.4867 40.4719" stroke="#00C3FF" stroke-width="5.48576" stroke-linecap="round"/>
</svg>
