<svg width="161" height="91" viewBox="0 0 161 91" fill="none" xmlns="http://www.w3.org/2000/svg">
<path d="M57.119 25.2562C56.1698 20.4557 59.3254 15.7207 64.1868 14.5952C69.202 13.434 74.1436 16.7143 75.1185 21.6449L76.2156 27.1935C76.5372 28.8193 76.0156 30.514 74.8229 31.7188L70.8373 35.7451C69.6447 36.9499 69.1231 38.6446 69.4447 40.2705L70.6698 46.4662" stroke="white" stroke-width="2.21455" stroke-miterlimit="10" stroke-linecap="round" stroke-linejoin="round"/>
<path d="M60.5252 66.2021C59.0886 58.9291 60.6955 49.5079 70.7994 47.3626C81.8182 45.023 85.9527 53.2252 87.3891 60.4982" stroke="white" stroke-width="2.21455" stroke-miterlimit="10" stroke-linecap="round" stroke-linejoin="round"/>
<path d="M15.3818 88.1144C15.581 88.0717 15.7796 88.0111 15.9756 87.9318L62.9574 68.9403L62.1116 64.5204L61.9071 62.3899L13.546 81.9023C11.8077 82.6068 10.9422 84.5279 11.6129 86.1929C12.2083 87.6704 13.8132 88.4498 15.3818 88.1144Z" fill="#00C3FF"/>
<path d="M137.501 61.7773C137.302 61.8224 137.097 61.851 136.887 61.8613L86.5567 64.3539L85.6127 59.9556L85.0245 57.9098L136.766 55.322C138.629 55.2315 140.166 56.622 140.2 58.4277C140.23 60.0302 139.065 61.4209 137.501 61.7773Z" fill="#00C3FF"/>
</svg>
